<?xml version="1.0" encoding="UTF-8"?><svg xmlns="http://www.w3.org/2000/svg" viewBox="0 0 400 400"><defs><style>.c{fill:none;stroke:#dc2a26;stroke-miterlimit:10;stroke-width:56px;}</style></defs><g id="a"><path d="M318.88,264.38c4.64.72,7.21,1.62,5.64,7.36-1.02,3.71-9.45,3.81-9.87,4.17-.46.4,2.44,3.16,1.65,4.95-2.39-.41-3.47,1.39-5.72,1.7-4.38.61-12.08-2.77-16.51-3.41-2.53-.37-5.73.64-8.19-.06-1.42-.41-2.31-2.78-3.53-3.14-1.68-.49-5.41,2.94-8.09,3.32-5.27.74-8.21-1.51-11.56-1.77-4.56-.35-9.48.37-14.09.06-.14-3.16,4.81-1.24,7.27-1.81,1.48-.34,3.8-2.66,5.27-2.99,2.25-.5,4.64.27,6.5-.1,2.96-.59,4.52-1.32,8.18-1.71,1.52-.16.99-3.21.85-3.3-.59-.41-3.35.87-3.28-.79,4.78-7.68-5.62-5.28-10.82-5.76-1.95-.18-3.16-1.83-4.89-1.84-1.49,0-6.57,1.94-7.99,1.63-6.87-1.5-5.54,1.64-6.84,1.53-4.36-.35-6.12.56-9.99.32-4.81-.3-7.24.75-13.2,1.55-7.06.95-13.41,4.28-21.25,3.18-.93-.13-2.09-2.18-2.62-1.49-.35.45-.07,4.03-2.5,4.96l-1.65-3.3c-3.41,5.35-5.72,3.91-9.96,4.9-12.73,2.97-23.06,8.23-34.84,13.04-3.51,1.43-9.3,1.06-10.5,5.18l3.3,1.65c-3.5.07-7.47,2.96-10.67,3.36-6.58.83-12.31-1.43-18.26-2.94-.52-.13-1.12.96-1.61.99-.35.02-4.58-3.93-5.07-4.72-.84-1.38.83-2.15.83-2.51.04-1.79-1.62.43-2.34.45-2.04.06-5.03-3.35-6.83-4.4-.74-.43-1.94.09-2.23-.19-.56-.53.41-4.34-.05-4.91-.35-.44-3.69,2.79-4.95,1.65-.38-.34,2.76-3.93,1.65-4.95-.28-.25-2.6.29-4-.12-4.35-1.29-1.91-9.09-2.64-9.75-.17-.16-1.97.16-3.31-.8-1.62-1.16-4.14-4.85-4.91-6.66-1.6-3.72,4.48-1.91,5.78-3.81,5.69,3.89,3.47-1.07,4.23-1.84.32-.32,2.11-.04,3.25-.86,1.92-1.38,1.37-3.8,1.68-4.15.33-.37,1.57.22,2.29-.14.88-.42,1.99-2.31,2.54-1.58.42.55-.39,2.67.08,3.26.3.39,9.51.37,9.82-.01.45-.55-.37-2.64.1-3.2.64-.75,14.55-1.46,17.1-1.89,3.75-.63,25.57-11.29,29.09-13.83,3.87-2.79,5.36-7.6,9.02-10.79,3.74-3.27,10.34-4.91,9.12-11.52,2.35-.93,1.43,6.8,4.95,3.3.53-.53-3.52-3.88-.8-4.96l4.05-.81c-.52-.47-1.22-1.02-1.24-1.67-.07-2.96,21.44-22.65,25.24-27.22,2.94-3.54,6.24-10.78,9.89-13.22,1.52-1.02-.39,4.2,2.47,3.3l.07-8.19c4.42.76,2.57-1.62,4.01-3.38,2.17-2.66,18.56-12.41,9.92-14.8-6.78-1.88-11.38,2-16.66,3.07-4.58.93-12.56.88-16.26,1.9-2.61.72-2.19,4.36-2.57,4.9-.42.59-2.27-2.07-3.94-1.62-1.33.36-5.94,3.9-9.99,4.97-8.06,2.13-25.33,8.94-32.9,13.33-2.42,1.4-5.29,5.85-6.9,6.3-1.92.53-4.21-.27-6.3.3-2.68.74-10.01,4.49-11.74,4.49-.53,0-1.09-1.08-1.81-1.18-3.44-.48-5.92.11-8.14-3.46-1.01-1.62-1.17-7.9-.75-8.26.14-.12,1.88.06,3.32-.8,2.27-1.36,5.23-4.44,7.56-5.66,8.23-4.3,17.11-7.39,25.43-12.54,6.33-3.92,10.84-4.85,15.48-7.64,7.39-4.44,10.44-8.84,20.18-12.83,12.43-5.09,24.39-8.66,37.6-11.93,9.12-2.26,12.65-9.29,25-8.12,1.77.17,2.68,1.41,3.49,1.56,1.67.3,2.56-1.26,3.08-1.3,1.16-.08,5.62,6.31,7.34,7.28,2.15,1.21,5.46,1.6,8.34,3.21,3.39,1.9,5.82,4.55,8.23,7.46.16.19-.24,1.94,1.65,1.65-.54.57,1.62,4.55-3.3,3.3-.14,1.07,2.21,3.3,2.48,3.3.33,0,5.36-3.88,5.77-3.3.36.51-.46,2.64.11,3.19.26.25,1.99.04,3.24.88,4.48,2.98-1.09,4.85-1.63,6.84-.12.45,1.42,7.47-.12,8.84-.22.2-1.93-.09-3.27.84-4.09,2.83-5.69,8.63-9.86,11.63-2.71,1.95-6.04,3.14-9.33,5.59-3.45,2.57-9.29,9.5-14.83,8.57-4.96-.83-6.45,8.86-7.31,9.67-.32.29-2.75-.24-4.14,1.68-.89,1.23-.56,3.01-.81,3.29-.23.25-6.24,2.02-6.52,1.72-.56-.59,1.32-3.93-1.66-3.3-.64,1.88,1.84,3.54.92,4.95-4.43,6.82-9.51,10.76-15.77,15.73-1.17.93-2.91.6-3.2.89-.87.87-6.4,11.33-9.17,11.23-.54-.02-1.59-1.85-3.2-1.41-2.46.67-3.46,6.21-5.03,8.27-2.24,2.94-6.1.02-5.82,3.26,2.44-.22,5.11.32,7.49.06,7.9-.86,10.73-.32,18.11-.33,1.21,0,5.97-2.79,8.19-3.08,4.73-.63,5.69,1.03,9.14,3.36-.6-6.2,1.88-2.26,4.36-1.77.91.18,10.2-1.61,11.1-1.43.84.17,1.41,1.48,3.48,1.59,1.86.09.3-2.45.92-3.35.33-.48,2.36,1.79,4.09,1.77,1.95-.03,7.42-1.76,9.86-1.82,4.5-.11,10.54-1.55,9.12,3.36,5.32-4.93,4.48-1.73,9.25-.18,6.45,2.1,8.64,2.42,14.62,1.77,3.73-.41,2.97.5,4.18,1.71-.47-.35-3.29-.51-3.3.83-.02,1.73,1.99.33,3.3.83.09.03-.22,1.19.84,1.62,3.67,1.48,2.03-2.72,2.48-3.28,1.54-1.93,6.66,4.37,8.23,5.83,1.04.97,2.88.57,3.2.89s-.07,2.13.89,3.2c2.4,2.69,6.42,5.54,7.35,9.2,1.85,7.34-.51,6.04-4.82,2.35-1.46,4.85,2.75,2.72,3.31,3.3.11.12.11,3.14,0,3.3-.57.73-4.02-4.38-3.3.82,2.06.93.91,3.9,2.57,4.16h.02ZM81.04,256.1c-1.07,0-1.07,1.65,0,1.65s1.07-1.65,0-1.65ZM87.64,269.31c-1.07,0-1.07,1.65,0,1.65s1.07-1.65,0-1.65ZM111.58,166.95c-1.05,1.26.54,4.63,1.65,3.3,1.05-1.26-.54-4.63-1.65-3.3ZM112.41,289.12c-1.07,0-1.07,1.65,0,1.65s1.07-1.65,0-1.65ZM117.36,166.95c-1.07,0-1.07,1.65,0,1.65s1.07-1.65,0-1.65ZM128.09,292.42c-1.26-1.05-4.63.54-3.3,1.65,1.26,1.05,4.63-.54,3.3-1.65ZM132.22,168.6c-1.07,0-1.07,1.65,0,1.65s1.07-1.65,0-1.65ZM137.17,237.94c-1.07,0-1.07,1.65,0,1.65s1.07-1.65,0-1.65ZM142.12,261.05c1.07,0,1.07-1.65,0-1.65s-1.07,1.65,0,1.65ZM146.25,280.86c-1.26-1.05-4.63.54-3.3,1.65,1.26,1.05,4.63-.54,3.3-1.65ZM158.63,226.38c-1.07,0-1.07,1.65,0,1.65s1.07-1.65,0-1.65ZM158.63,232.99c-1.07,0-1.07,1.65,0,1.65s1.07-1.65,0-1.65ZM166.06,274.26c-1.26-1.05-4.63.54-3.3,1.65,1.26,1.05,4.63-.54,3.3-1.65ZM168.54,150.44c-1.07,0-1.07,1.65,0,1.65s1.07-1.65,0-1.65ZM170.19,138.89c-1.07,0-1.07,1.65,0,1.65s1.07-1.65,0-1.65ZM173.49,213.18c-.17,0-2.48,2.3-2.48,2.48,0,2.33,4.81-2.48,2.48-2.48ZM171.84,219.78c-1.07,0-1.07,1.65,0,1.65s1.07-1.65,0-1.65ZM177.62,133.94c-1.26-1.05-4.63.54-3.3,1.65,1.26,1.05,4.63-.54,3.3-1.65ZM177.62,247.85c-1.26-1.05-4.63.54-3.3,1.65,1.26,1.05,4.63-.54,3.3-1.65ZM175.14,145.49c-1.07,0-1.07,1.65,0,1.65s1.07-1.65,0-1.65ZM177.62,211.53c1.05-1.26-.54-4.63-1.65-3.3-1.05,1.26.54,4.63,1.65,3.3ZM175.96,228.04c5.58,1.12,5.17-3.78,9.95-2.47,2.96.81,4.03-3.4,3.26-4.13-.26-.24-5.18,1.93-6.61,2.47-2.61.98-5.8.72-6.59,4.13h0ZM184.22,214.83c1.05-1.26-.54-4.63-1.65-3.3-1.05,1.26.54,4.63,1.65,3.3ZM187.52,267.66c-1.66-1.34-5.82,2.61-4.95,3.3,1.66,1.34,5.82-2.61,4.95-3.3ZM187.52,135.59c-1.26-1.05-4.63.54-3.3,1.65,1.26,1.05,4.63-.54,3.3-1.65ZM185.05,196.67c1.07,0,1.07-1.65,0-1.65s-1.07,1.65,0,1.65ZM189.17,195.02c1.05-1.26-.54-4.63-1.65-3.3-1.05,1.26.54,4.63,1.65,3.3ZM197.42,186.76l-4.95,5.78,6.6.82c.65-2.96-2.6-1.09-3.31-1.66-.41-.33,2.4-3.18,1.66-4.94h0ZM197.43,261.05c-1.26-1.05-4.63.54-3.3,1.65,1.26,1.05,4.63-.54,3.3-1.65ZM196.6,196.67c1.07,0,1.07-1.65,0-1.65s-1.07,1.65,0,1.65ZM198.26,199.97c-4.77,2.78-.87,5,.82,3.3.31-.3.37-4-.82-3.3ZM202.38,212.35c0-2.21-1.85.6-2.48.83-1.86.67-3.07-1.44-2.47,3.3,1.3-.11,4.95-3.8,4.95-4.13h0ZM204.03,132.28c-1.81-1.81-5.11,1.5-3.3,3.3s5.11-1.5,3.3-3.3ZM201.55,193.37c1.07,0,1.07-1.65,0-1.65s-1.07,1.65,0,1.65ZM201.55,264.35c-1.07,0-1.07,1.65,0,1.65s1.07-1.65,0-1.65ZM208.98,237.94c-1.26-1.05-4.63.54-3.3,1.65,1.26,1.05,4.63-.54,3.3-1.65ZM206.51,137.23c-1.07,0-1.07,1.65,0,1.65s1.07-1.65,0-1.65ZM213.94,199.97c1.26,1.05,4.63-.54,3.3-1.65-1.26-1.05-4.63.54-3.3,1.65ZM218.89,157.05c1.66,1.34,5.82-2.61,4.95-3.3-1.66-1.34-5.82,2.61-4.95,3.3ZM219.71,231.34c-1.07,0-1.07,1.65,0,1.65s1.07-1.65,0-1.65ZM221.37,261.05c-1.07,0-1.07,1.65,0,1.65s1.07-1.65,0-1.65ZM226.32,158.7c-.29,0-4.13,3.83-4.13,4.13,0,2.4,6.53-4.13,4.13-4.13ZM223.02,124.03c-1.07,0-1.07,1.65,0,1.65s1.07-1.65,0-1.65ZM224.67,152.1c1.07,0,1.07-1.65,0-1.65s-1.07,1.65,0,1.65ZM227.97,180.16c1.07,0,1.07-1.65,0-1.65s-1.07,1.65,0,1.65ZM227.97,236.29c-1.07,0-1.07,1.65,0,1.65s1.07-1.65,0-1.65ZM229.62,181.81c-4.77,2.78-.87,4.99.82,3.3.3-.3.37-4-.82-3.3ZM230.44,125.68c1.05-1.26-.54-4.63-1.65-3.3-1.05,1.26.54,4.63,1.65,3.3ZM231.27,132.28c-1.07,0-1.07,1.65,0,1.65s1.07-1.65,0-1.65ZM232.92,128.98c1.07,0,1.07-1.65,0-1.65s-1.07,1.65,0,1.65ZM237.87,128.98c1.07,0,1.07-1.65,0-1.65s-1.07,1.65,0,1.65ZM255.21,242.89c1.87,1.56,6.48-3.3,4.13-3.3-.52,0-.94,1.4-1.65,1.65-.45.16-4.25.17-2.48,1.65h0ZM259.34,163.65c1.07,0,1.07-1.65,0-1.65s-1.07,1.65,0,1.65ZM266.76,244.54c-1.69-1.69-5.59.52-.82,3.3,1.2.7,1.12-3,.82-3.3ZM268.42,228.04c-1.26-1.05-4.63.54-3.3,1.65,1.26,1.05,4.63-.54,3.3-1.65ZM265.94,249.5c-1.07,0-1.07,1.65,0,1.65s1.07-1.65,0-1.65ZM267.59,232.99c-1.07,0-1.07,1.65,0,1.65s1.07-1.65,0-1.65ZM270.89,145.49c1.07,0,1.07-1.65,0-1.65s-1.07,1.65,0,1.65ZM270.89,148.79c1.07,0,1.07-1.65,0-1.65s-1.07,1.65,0,1.65ZM270.89,236.29c-1.07,0-1.07,1.65,0,1.65s1.07-1.65,0-1.65ZM284.1,249.5c-1.07,0-1.07,1.65,0,1.65s1.07-1.65,0-1.65ZM284.1,267.66c-1.07,0-1.07,1.65,0,1.65s1.07-1.65,0-1.65ZM285.75,231.34c-1.07,0-1.07,1.65,0,1.65s1.07-1.65,0-1.65ZM292.35,266c-1.07,0-1.07,1.65,0,1.65s1.07-1.65,0-1.65ZM296.48,249.5c-1.26-1.05-4.63.54-3.3,1.65,1.26,1.05,4.63-.54,3.3-1.65ZM312.99,249.5c-1.05,1.26.54,4.63,1.65,3.3,1.05-1.26-.54-4.63-1.65-3.3ZM320.42,266c-1.07,0-1.07,1.65,0,1.65s1.07-1.65,0-1.65Z"/></g><g id="b"><path class="c" d="M101.13,175.28s151.41-81.92,157.41-47.95-88.45,107.68-109.44,116.62-101.6,15.22-88.95,37.73,241.99-63.58,245.18-30.2-52.63,49.56-52.63,49.56"/></g></svg>