<?xml version="1.0" encoding="UTF-8"?><svg xmlns="http://www.w3.org/2000/svg" viewBox="0 0 400 400"><defs><style>.c{fill:none;stroke:#dc2a26;stroke-miterlimit:10;stroke-width:56px;}</style></defs><g id="a"><path d="M284.64,97.39c.27.25-.31,5.58,1.19,7.08-.92,3.15-2.58,10.4-6.17,11.39-.96.27-2.13-.12-3.08.2-2.32.79-5.11,3.35-7.22,4.8l4.92-2.73c.81-.17.75,1.16.54,1.64-.73,1.67-4.55,3.84-6.56,3.85.94.67.18,5.21-.03,5.4-.22.2-.99-.13-1.46.14-2.24,1.29-4.18,3.05-6.82,4.15-.86.35-2.08-.06-3.06.22-1.8.51-9.33,6.25-9.93,6.23-3.22-.13-1.37,1.54-4.9,4.07-3.82,2.73-8.02,3.74-10.36,7.1-2.14,3.08-5.07,3.18-7.18,4.86-1.25,1-.92,2.52-1.11,2.72-.26.28-6.22,2.04-6.45,2.29-.16.17-.12,2.81-1.73,3.23-1.75.46-3.16-3.7-2.69,2.18-2.05.47-.37-2.19-1.64-2.19-.92,0-.51,2.8-2.2,3.26-1.94.53-3.05-1.32-4.9-1.08l4.37,3.28c-5.93-.99-3.75,1.43-4.39,2.17-.54.62-3.6-2.14-4.35.56-.48,1.76,1.34,3.61,1.09,3.82-.17.15-3.54.89-4.37,1.09-.09,2.17,2.14,1,3.29.56,1.57-.6,6.42-3.67,7.08-3.67,6.7.04,4.23-1.25,7.74-2.27,2.46-.72,12.45-1.18,15.19-1.21,7.37-.1,11.7,3.14,17.64,6.46,7.02,3.91,6.92,3.74,11.88,9.98,5.39,6.78,10.24,12,13.55,20.33.35.9-.1,2.13.24,3.04.73,2.01,2.66,3.43,3.16,4.49,1.28,2.71-2.27.34-2.18,1.09.04.37,4.29,4.58,2.45,6.54,2.66,5.01-.45,3.23-1.36,3.87-.22.16.99,1.57,1.13,2.67.12.95.12,4.77-.07,4.92-.7.57-3.21-1.49-2.02,3.72.15.65,1.41,1.46.96,1.75-.42.27-1.72-.24-2.19.07-.42.28.82,1.01.83,1.57.01.93-1.84,2.95-1.85,3.31-.01.51,1.81,1.46,2.1,2.2.82,2.06-1.09,1.38-2.2,2.13-2.52,1.7-.15,3.61-.12,4.42.02.62-3.81,5.35-4.22,6,.13-.13-.19-.94.07-1.54.22-.51.84-.85.98-1.31.23-.75-.46-1.18-.52-1.53-.32-2.18.68-3.16.55-3.26-2.03-1.73-2.1,1.34-2.7,2.2-.55.8-3.33,2.73-2.76,3.26.75.7,2.57-1.49,3.28-.55l-3.28,4.92c.91-1.28,4.19-2.01,4.37-2.19-.12.19.22,1.29-.51,2.2-.91,1.14-2.35,2.09-3.31,3.26l-2.19-3.28c-.95,1.07,1.23,1.48.04,3.3-.35.53-2.22,2.39-2.77,2.77-.86.59-2.81-1.86-4.37,1.03l3.28,1.09c-1.16.91-2.13,2.49-3.26,3.29-5.02,3.55-9.25,5.77-14.21,9.85-3.8,3.14-6.16,2.83-10.94,4.89,2.43-2.26,1.18-1.45-.45-2.26-.92-.46-1.5-1.45-2.28-2.11-1.18,1.21,1.95,1.76,1.15,3.28-1.05,2,1.25,1.39,1.58,1.09-.2.09-1.54,2.9-2.8,3.26-1.06.31-2.69-1.73-4.3-1.07l.54,3.28c-3.24.92-1.79-1.76-2.19-2.19-.5-.52-1.69,1.39-2.19,1.7-.96.61-2.01-1.04-3.28-.61-.49,1.97,3.31.2,2.18,2.73-.32.71-3.45,2.6-3.82,2.6-1.59,0-2.04-2.88-3.95.52-1.69,3.01-2.04.5-3.56.78-.85.15-3.74,1.89-4.5,1.89-.93,0-7.18-.94-7.57-.83-2.44.68-2.41,5.88-7.2,1.06-.92,3.24,1.76,1.78,2.19,2.19,1.52,1.43-4.09,2.16-4.79,2.31-3.61.78-4.49-.24-5.44-.06-5.04.97-12.77,2.91-17.64,3.08-.27,0-3.04-2.72-4.46-3.08-1.98-.51-2.8,1.55-5.31-.13-1.98-1.33-1.5-2.92-1.74-3.18-.26-.3-1.88.16-2.73.01-2.57-.45-5.09-.8-7.49-2.36-4.13-2.68-1.55-4.04-1.76-4.22-.24-.2-1.98.29-3.32-.53-1.38-.84-3.51-3.17-4.33-3.86,1.2,1.19,3.38-.99,2.19-2.19s-3.38.99-2.19,2.19c-1.09-.92-3.14-1.95-3.86-3.24-.81-1.46-.27-2.38-.51-3.31,1.49.92,3.13,1.82,2.19-.54-.97-2.44-4.16-1.55-3.28-.55-3.26-3.41-5.91-7.11-5.62-11.47.04-.59-2.41-2.18-3.02-3.38-.84-1.66-1.3-5.06-1.2-7,2.08-.4.22,1.89,1.77,2.23,1.61.36.75.92,2.5,3.91,1.57,2.68,1.21.67,3.42,2.01,2.38,1.45,2.79,4.41,3.26,4.94.27.3,4.42-.2,5.89.12,2.39.51,4.53,3.88,5.64,4.19,5.35,1.48,13.3,4.02,18.47,4.5,1.99.19,8.81-1.71,11.1-2.17,1.14-.23,1.53,1.12,5.43.04.92-.25,2.38.08,2.57-.15.33-.39-.21-1.74.07-2.14.27-.4,1.09.78,1.76.96,3.59,1.01,6.43-4.31,9.71-5.09,6.43-1.52,26.83-16.93,33.32-22.63,3.43-3.02,5.67-7.39,8.72-9.88.92-.75,4.09-2.54,4.32-2.75.17-.15,1.04-4.12,1.21-4.27.77-.69.44.48,2.64-2.25,1.1-1.36,7.88-10.65,8.13-11.56.27-.96-.12-2.15.22-3.06.57-1.53,1.86-2.73,2.1-4.46.55-3.98.07-11.82-3.3-14.28-.79-.58-1.95-.4-2.14-.59-.37-.39.18-1.74-.1-2.06-.18-.21-2.49.05-3.65-.18-8.2-1.65-16.89-1.59-25.17.25-1.51.34-4.15,2.73-5.67,3.07-2.53.57-2.58-.19-4.34.89,1.2-.44,2.82.89.07,2.49-.79.46-.75-1.99-.55-2.19-1.11.76-2.59,1.38-3.85,1.93-.37.16-2.5-2.08-.52,1.34l-3.28-2.18c.2,3.14-2.5,4.62-3.86,6.54-.62.88-.43,2.04-.55,2.16-.25.25-1.7-.17-2.57.15-1.05.39-1.52,1.57-2.31,2.08-.51.33-.65-4.37-2.73-2.19-.25.26,1.83,2.63,1.09,3.27-.17.15-.98-.21-1.52.1-.95.54-1.46,1.43-2.43,1.96-2.71,1.48-3.84,2.24-5.89,3.92-2.02,1.66-6.71,7.8-9.2,7.11-.83-.23-1.59-2.02-2.24-1.98-4.58.32-2.57-.71-4.49-1.24-1.11-.3-2.32,1.46-2.59,1.06-.29-.43.24-1.79-.06-2.17-.29-.37-4.01.32-4.34-.03-.12-.13.14-.9-.12-1.49-1.83-4.16-4.11-7.01-7.54-9.98-.09-1.14,1.78-.26,2.19-.55,2.84-1.99-2.04-2.08-2.19-2.19-.61-.44,2.77-2.8,2.19-3.28-.37-.3-2.89.31-3.28-.01-.46-.38.86-1.06.85-1.61-.01-.59-1.23-1.38-.76-3.18.54-2.07,2.36-5.67,4.25-6.71,1.12-.62,2.24-.4,3.36-1.01,1.87-1.03,4.63-5.65,6.48-6.63,1.34-.72,3.14-.39,3.29-.54.16-.16.74-3.07,1.64-4.36,1.57-2.24,4.54-3,4.86-3.34.46-.48-.79-2.98,1.61-2.03.61.24,1.01.98,1.2.98,1.61.03,1.56-5.25,3.28-5.36.29-.02.98,1.46,2.73-.07l-3.28,4.92c1.67,2.29,4.67-3.13,4.34-4.3-.86-3.06-5.1-1.55,1.67-6.08,1.01-.67-.25,2.78,1.64,2.19-1.75-4.53.06-3.09,2.2-4.9,3.66-3.1,4.25-4.66,8.73-7.12-.18.2.24,1.04-.01,1.62-.23.51-1.59,1.23-1.08,1.66.61.52,6.19-1.46,4.37-3.28-.12-.12-3.17-.12-3.28,0,.32-.17,1.08-2.66,1.62-3.3,1.06-1.26,5.16-5.63,6.4-5.34,3.78.88-.07-.56.71-1.15.4-.3,1.76.25,2.12-.11.2-.2.15-2.78,1.78-3.21,1.21-.32,2.1,1.76,2.67.54-1.7-.37-.24-4.6.05-4.87.19-.17,1.36.07,2.14-.57,1.92-1.56,3.53-5.02,4.32-5.54,4.05-2.67,4.28-2.17,7.11-5.98,2.21-2.98,4.15-.99,4.96-5.96.17-1.07,2.12-.67,2.18-.58.2.3-.13,1.54,0,2.19,4.61-2.97.78-1.7,0-2.19-.29-.18,1.82-2.46,1.09-3.28-.4-.45-1.45,1.38-2.63,1.06-.88-.24-1.6-2.02-2.29-1.97-.38.03-.72.7-1.09.71-.49.01-1.27-1.36-1.59-.88-.33.48.19,1.83-.07,2.17-.55.73-2.78-1.18-3.81-1.17-1.87.02-6.2,2.09-6.56,2.07-.41-.02-1.02-1.14-2.06-.86-.94.26-1.6,1.86-2.31,2.14-2.42.97-1.36-1.82-1.64-2.18-1.07-1.41-1.02,2.04-1.13,2.16-.18.2-1.64-.1-2.57.15-.61.17-1.11.8-2.28,1.01-2.6.46-4.08-1.25-3.27,1.05,1.29,3.68-3.68.87-3.84,1.09-.2.27.24,1.74-1.08,2.78-1.26.99-4.24,1.43-4.41,1.6-.71.71,1.27,2.67,1.06,3.73-.18.94-2.27,3.78-3.23,4.48-2.59,1.9-6.34,2.5-9.17,3.95-.96.49-2.03,1.99-2.32,1.98-.38,0-4.32-2.6-5.63-3.06-.93-.32-2.33.02-2.53-.19-.21-.23-1.82-4.3-2.73-5.47-.97-1.25-2.52-.92-2.72-1.11-.17-.16-.82-3.11-1.68-4.33-1.37-1.96-5.7-3.96-5.97-4.96-.33-1.23.15-2.78-.16-4.21-.66-2.93-4.88-5.32-5.27-6.75-1.3-4.71-.39-9.01,1.01-13.57,2.43-.72,3.53,2.8,4.98,3.21,5.02,1.43,8.32-1.35,12.07-2,3.42-.59,7.38.22,10.85-.08,2.49-.22,7.26-2.05,9.75-2.26,13.07-1.15,37.67,2.3,50.19,6.72,1.88.67,4.94,3.22,6.67,3.22,3.14,0,5.98-4.3,8.18-6.1.76-.62,1.92-.38,2.13-.6.94-.97-1.47-2.74,3.89-2.29.69.06,1.43-1.79,2.19-1.77.45.01,1.64,1.66,1.64.33,0-.15-1.59-1.49-1.09-2.73,3.32-.52,5.86-2.44,9.32-2.23,1.07.07,1.81.92,2.15.92,1.75,0,4.2-1.33,7.54-.76,4.09.71,4.72,3.12,7.2,4.84.91.63,2.08.44,2.19.53h0ZM127.3,279.87c-.7.84.36,3.06,1.09,2.19.7-.84-.36-3.06-1.09-2.19ZM139.87,291.89c-.71,0-.71,1.09,0,1.09s.71-1.09,0-1.09ZM142.6,298.45l-2.19-2.19c-.28,2.3-.11,2.47,2.19,2.19ZM144.23,296.27c-.71,0-.71,1.09,0,1.09s.71-1.09,0-1.09ZM146.97,294.08c-.84-.7-3.06.36-2.19,1.09.84.7,3.06-.36,2.19-1.09ZM145.88,207.75c-.7.84.36,3.06,1.09,2.19.7-.84-.36-3.06-1.09-2.19ZM146.42,212.12c-.71,0-.71,1.09,0,1.09s.71-1.09,0-1.09ZM149.7,290.8c-.71,0-.71,1.09,0,1.09s.71-1.09,0-1.09ZM152.43,121.42c-1.12-1.12-3.7.35-.54,2.19.79.46.75-1.99.54-2.19ZM153.53,192.45c-2.3-.28-2.47-.11-2.19,2.19l2.19-2.19ZM151.88,203.38c-.71,0-.71,1.09,0,1.09s.71-1.09,0-1.09ZM153.52,303.37c0-.12-1.52-1.64-1.64-1.64-1.55,0,1.64,3.18,1.64,1.64ZM156.8,124.7l-2.19-2.19c-.28,2.3-.11,2.47,2.19,2.19ZM163.36,189.17c-.08-.7.14-2.04,0-2.19-.39-.39-5.25.9-5.46,1.09-3.19,2.93,3.9,1.49,5.47,1.09h0ZM160.08,292.98c-.84-.7-3.06.36-2.19,1.09.84.7,3.06-.36,2.19-1.09ZM158.44,129.07c-.71,0-.71,1.09,0,1.09s.71-1.09,0-1.09ZM161.72,192.45c-.35,0-.62.93-1.09,1.09-.3.1-2.81.11-1.64,1.09,1.24,1.03,4.29-2.18,2.73-2.18ZM160.63,217.58c-.71,0-.71,1.09,0,1.09s.71-1.09,0-1.09ZM161.17,184.25c0,1.54,3.18-1.64,1.64-1.64-.12,0-1.64,1.52-1.64,1.64ZM163.36,131.8c0-.12-1.52-1.64-1.64-1.64-1.54,0,1.64,3.18,1.64,1.64ZM165.54,135.63c-.84-.7-3.06.36-2.19,1.09.84.7,3.06-.36,2.19-1.09ZM163.91,122.51c.71,0,.71-1.09,0-1.09s-.71,1.09,0,1.09ZM163.91,305.01c-.71,0-.71,1.09,0,1.09s.71-1.09,0-1.09ZM167.73,120.33c-.84-.7-3.06.36-2.19,1.09.84.7,3.06-.36,2.19-1.09ZM167.18,185.9c-.71,0-.71,1.09,0,1.09s.71-1.09,0-1.09ZM167.18,301.73c-.71,0-.71,1.09,0,1.09s.71-1.09,0-1.09ZM171.01,299.54c-.21-.17-1.01.22-1.6-.04-.54-.24-1.27-1.55-1.68-1.05-2.46,2.98,4.98,2.51,3.28,1.09ZM169.92,206.66c-2.3-.28-2.47-.12-2.19,2.19l2.19-2.19ZM173.19,201.19c-.32-.35-4.37,3.53-4.37,3.83,0,1.44,1.94-1.02,2.86-1.54.56-.31,1.34.03,1.51-.1.09-.07.07-2.11,0-2.19ZM169.37,131.26c-.71,0-.71,1.09,0,1.09s.71-1.09,0-1.09ZM172.1,178.24l-3.22,2.86.49,3.69c2.8-1.33-.2-3.48.57-4.35.36-.41,3.14.96,2.17-2.21h0ZM170.46,297.36c.71,0,.71-1.09,0-1.09s-.71,1.09,0,1.09ZM176.47,185.9c-.23-.17-1.49.08-2.19,0,.32-.7,1.3-2,1.09-2.19-.12-.11-3.17-.12-3.28,0-1.99,2,.97,2.05,2.19,2.19-.15.32.17.95,0,1.09-.13.1-3.53-.06-2.19,1.09.49.42,5.46-1.39,4.37-2.18ZM173.74,179.34c.71,0,.71-1.09,0-1.09s-.71,1.09,0,1.09ZM174.83,301.73c-.71,0-.71,1.09,0,1.09s.71-1.09,0-1.09ZM175.92,134.54c-.71,0-.71,1.09,0,1.09s.71-1.09,0-1.09ZM177.02,173.87c-.71,0-.71,1.09,0,1.09s.71-1.09,0-1.09ZM181.94,301.73c-.15-.15-4.2-.14-4.37,0-1.09.91,1.34,1.11,1.5,1.22.74.5,2.56,2.43,2.87,2.05.1-.13.12-3.16,0-3.28ZM179.75,182.61c1.12-1.12-.35-3.7-2.19-.54-.46.79,1.99.75,2.19.54ZM178.66,170.59c.84.7,3.06-.36,2.19-1.09-.84-.7-3.06.36-2.19,1.09ZM179.2,171.69c-.71,0-.71,1.09,0,1.09s.71-1.09,0-1.09ZM179.2,291.89c.71,0,.71-1.09,0-1.09s-.71,1.09,0,1.09ZM181.94,173.87c-.84-.7-3.06.36-2.19,1.09.84.7,3.06-.36,2.19-1.09ZM180.3,177.15c-.71,0-.71,1.09,0,1.09s.71-1.09,0-1.09ZM180.3,212.12c-.71,0-.71,1.09,0,1.09s.71-1.09,0-1.09ZM180.3,299.54c.71,0,.71-1.09,0-1.09s-.71,1.09,0,1.09ZM183.03,166.23c-.84-.7-3.06.36-2.19,1.09.84.7,3.06-.36,2.19-1.09ZM185.21,301.73c-.84-.7-3.06.36-2.19,1.09.84.7,3.06-.36,2.19-1.09ZM183.58,280.96c.71,0,.71-1.09,0-1.09s-.71,1.09,0,1.09ZM184.12,200.1c.7.59,5.46-1.96,5.46-2.73,0-.99-2.87.95-3.97,1.5-.31.15-2.54.36-1.49,1.23h0ZM190.67,190.27c-2.26-1.44-7.03,3.95-6.56,4.37,1.26,1.13,3.03-1.68,3.79-2.22,1.37-.96,2.96-.68,2.76-2.15h0ZM184.67,117.05c-.71,0-.71,1.09,0,1.09s.71-1.09,0-1.09ZM186.31,172.78c.7-.84-.36-3.06-1.09-2.19-.7.84.36,3.06,1.09,2.19ZM187.4,180.43c-.2-.2-2.65-.25-2.19.54,1.84,3.16,3.31.58,2.19-.54ZM186.85,205.57c-.71,0-.71,1.09,0,1.09s.71-1.09,0-1.09ZM189.59,279.87c-.84-.7-3.06.36-2.19,1.09.84.7,3.06-.36,2.19-1.09ZM187.95,194.64c-.71,0-.71,1.09,0,1.09s.71-1.09,0-1.09ZM188.49,275.5c-.7.84.36,3.06,1.09,2.19.7-.84-.36-3.06-1.09-2.19ZM190.68,206.66l-2.19-2.19c-.28,2.3-.12,2.47,2.19,2.19ZM197.25,175.53c1.86-1.21-.26-2.78-.57-2.75-1.73.15-2.57,4.15-2.75,4.35-.34.38-3.99-.33-4.35.03-.16.16-1.25,4.2-1.1,4.36,1.06,1.1,3.87-2.77,5.39-2.26-.1-2.79,1.7-2.64,3.37-3.73h0ZM189.59,175.51c0,1.54,3.18-1.64,1.64-1.64-.12,0-1.64,1.52-1.64,1.64ZM190.13,188.08c.71,0,.71-1.09,0-1.09s-.71,1.09,0,1.09ZM190.68,193.54c-.7.84.36,3.06,1.09,2.19.7-.84-.36-3.06-1.09-2.19ZM191.22,162.95c.71,0,.71-1.09,0-1.09s-.71,1.09,0,1.09ZM191.22,276.6c-.71,0-.71,1.09,0,1.09s.71-1.09,0-1.09ZM193.41,99.57c-.71,0-.71,1.09,0,1.09s.71-1.09,0-1.09ZM193.41,278.78c-.71,0-.71,1.09,0,1.09s.71-1.09,0-1.09ZM196.69,200.1c.71,0,.71-1.09,0-1.09s-.71,1.09,0,1.09ZM198.87,114.87c-.71,0-.71,1.09,0,1.09s.71-1.09,0-1.09ZM198.87,157.48c-.71,0-.71,1.09,0,1.09s.71-1.09,0-1.09ZM199.97,109.4c-.71,0-.71,1.09,0,1.09s.71-1.09,0-1.09ZM201.06,199.01c.71,0,.71-1.09,0-1.09s-.71,1.09,0,1.09ZM201.61,190.26c1.1.89,3.85-1.73,3.28-2.18-1.1-.89-3.85,1.72-3.28,2.18ZM203.24,150.93c-.71,0-.71,1.09,0,1.09s.71-1.09,0-1.09ZM205.43,274.41c-.71,0-.71,1.09,0,1.09s.71-1.09,0-1.09ZM208.16,190.26c1.12-1.12-.35-3.7-2.19-.54-.46.79,1.99.75,2.19.54ZM206.52,140c-.71,0-.71,1.09,0,1.09s.71-1.09,0-1.09ZM206.52,161.86c-.71,0-.71,1.09,0,1.09s.71-1.09,0-1.09ZM207.07,295.17c-.7.84.36,3.06,1.09,2.19.7-.84-.36-3.06-1.09-2.19ZM210.35,161.85c-3.14-.4-1.74.41-2.19,1.64-.15.41-2.01,1.64-.55,1.64.21,0,2.66-2.42,2.73-3.28ZM208.16,182.62c.84.7,3.06-.36,2.19-1.09-.84-.7-3.06.36-2.19,1.09ZM210.35,149.83c-.2-.2-2.65-.25-2.19.54,1.84,3.16,3.31.58,2.19-.54ZM208.71,158.57c.71,0,.71-1.09,0-1.09s-.71,1.09,0,1.09ZM212.53,186.99c-.34-.38-3.28,2.51-3.28,2.73,0,1.47,1.23-.4,1.64-.55.61-.22,1.46.18,1.64,0,.08-.08.07-2.11,0-2.19ZM210.89,147.65c-.71,0-.71,1.09,0,1.09s.71-1.09,0-1.09ZM211.44,179.34l2.19-2.19c-2.3-.28-2.47-.11-2.19,2.19ZM212.53,292.98c-.28,2.3-.12,2.47,2.19,2.19l-2.19-2.19ZM214.17,134.54c-.12,0-1.64,1.52-1.64,1.64,0,1.54,3.18-1.64,1.64-1.64ZM213.08,157.48c-.71,0-.71,1.09,0,1.09s.71-1.09,0-1.09ZM213.62,179.89c-.46.79,1.99.75,2.19.54,1.12-1.12-.35-3.7-2.19-.54ZM216.9,190.27c-.84-.7-3.06.36-2.19,1.09.84.7,3.06-.36,2.19-1.09ZM216.9,275.5c-.84-.7-3.06.36-2.19,1.09.84.7,3.06-.36,2.19-1.09ZM216.9,289.71l-2.19-2.19c-.28,2.3-.11,2.47,2.19,2.19ZM215.27,174.97c.71,0,.71-1.09,0-1.09s-.71,1.09,0,1.09ZM215.81,272.22c-.7.84.36,3.06,1.09,2.19.7-.84-.36-3.06-1.09-2.19ZM217.45,146.56c-.71,0-.71,1.09,0,1.09s.71-1.09,0-1.09ZM217.45,156.39c-.71,0-.71,1.09,0,1.09s.71-1.09,0-1.09ZM218,135.63c-.7.84.36,3.06,1.09,2.19.7-.84-.36-3.06-1.09-2.19ZM218,174.42c0,1.54,3.18-1.64,1.64-1.64-.12,0-1.64,1.52-1.64,1.64ZM219.09,286.43c-.7.84.36,3.06,1.09,2.19.7-.84-.36-3.06-1.09-2.19ZM220.18,177.15c.42.43,5.77.12,4.37-1.09-.17-.15-4.21-1.26-4.37-1.09-.08.08-.08,2.11,0,2.19ZM220.73,133.44c-.71,0-.71,1.09,0,1.09s.71-1.09,0-1.09ZM223.46,283.15c-.84-.7-3.06.36-2.19,1.09.84.7,3.06-.36,2.19-1.09ZM222.37,286.98c-.46.79,1.99.75,2.19.54,1.12-1.12-.35-3.7-2.19-.54ZM222.91,267.85c.71,0,.71-1.09,0-1.09s-.71,1.09,0,1.09ZM228.93,172.78c-.21-.17-5.25-.17-5.46,0-1.85,1.54,7.31,1.54,5.46,0ZM224.01,135.63c-.71,0-.71,1.09,0,1.09s.71-1.09,0-1.09ZM225.1,178.25c-.71,0-.71,1.09,0,1.09s.71-1.09,0-1.09ZM226.19,152.02c-.71,0-.71,1.09,0,1.09s.71-1.09,0-1.09ZM226.19,192.45c-.71,0-.71,1.09,0,1.09s.71-1.09,0-1.09ZM229.47,145.46c-.71,0-.71,1.09,0,1.09s.71-1.09,0-1.09ZM229.47,244.91c-.71,0-.71,1.09,0,1.09s.71-1.09,0-1.09ZM229.47,282.06c-.71,0-.71,1.09,0,1.09s.71-1.09,0-1.09ZM230.56,184.8c.71,0,.71-1.09,0-1.09s-.71,1.09,0,1.09ZM235.48,174.97c-.17-.14-4.2-.14-4.37,0-1.79,1.5,6.16,1.5,4.37,0ZM236.57,282.06l4.37-4.37c-2.63.06-4.77,1.9-6.56,3.28-.85.65-3.43,1.8-2.19,3.28.41.49,1.16-.9,1.64-.89.68,0,1.84,1.79,2.73-1.29h0ZM233.84,173.87c.71,0,.71-1.09,0-1.09s-.71,1.09,0,1.09ZM234.93,108.31c-.71,0-.71,1.09,0,1.09s.71-1.09,0-1.09ZM234.93,181.52c-.71,0-.71,1.09,0,1.09s.71-1.09,0-1.09ZM237.12,127.98c-3.16,1.84-.58,3.31.54,2.19.2-.2.25-2.65-.54-2.19ZM238.21,264.57c.71,0,.71-1.09,0-1.09s-.71,1.09,0,1.09ZM241.49,192.45c.71,0,.71-1.09,0-1.09s-.71,1.09,0,1.09ZM242.04,134.54c-.95,1.18.41,5.05,2.18,3.28.91-.91-1.68-3.9-2.18-3.28ZM242.58,180.43c.71,0,.71-1.09,0-1.09s-.71,1.09,0,1.09ZM244.77,178.24c.71,0,.71-1.09,0-1.09s-.71,1.09,0,1.09ZM248.05,213.21c.71,0,.71-1.09,0-1.09s-.71,1.09,0,1.09ZM248.05,270.04c.71,0,.71-1.09,0-1.09s-.71,1.09,0,1.09ZM248.05,272.22c.71,0,.71-1.09,0-1.09s-.71,1.09,0,1.09ZM249.69,201.74c0-.12-1.52-1.64-1.64-1.64-1.54,0,1.64,3.18,1.64,1.64ZM250.23,206.65c.71,0,.71-1.09,0-1.09s-.71,1.09,0,1.09ZM250.23,225.23c.71,0,.71-1.09,0-1.09s-.71,1.09,0,1.09ZM251.33,204.47c.71,0,.71-1.09,0-1.09s-.71,1.09,0,1.09ZM251.33,271.13c.71,0,.71-1.09,0-1.09s-.71,1.09,0,1.09ZM253.51,206.65c.71,0,.71-1.09,0-1.09s-.71,1.09,0,1.09ZM255.15,212.12c.84.7,3.06-.36,2.19-1.09-.84-.7-3.06.36-2.19,1.09ZM258.43,188.63c0-.35-.93-.62-1.09-1.09-.1-.3-.11-2.81-1.09-1.64-1.03,1.24,2.18,4.29,2.18,2.73ZM258.43,106.12c-2.3-.28-2.47-.11-2.19,2.19l2.19-2.19ZM256.79,121.42c-.71,0-.71,1.09,0,1.09s.71-1.09,0-1.09ZM256.79,131.26c-.71,0-.71,1.09,0,1.09s.71-1.09,0-1.09ZM257.88,195.73c.71,0,.71-1.09,0-1.09s-.71,1.09,0,1.09ZM257.88,202.29c.71,0,.71-1.09,0-1.09s-.71,1.09,0,1.09ZM257.88,264.57c-.71,0-.71,1.09,0,1.09s.71-1.09,0-1.09ZM258.43,208.84c-.28,2.3-.11,2.47,2.19,2.19l-2.19-2.19ZM258.97,118.14c-.71,0-.71,1.09,0,1.09s.71-1.09,0-1.09ZM258.97,200.1c.71,0,.71-1.09,0-1.09s-.71,1.09,0,1.09ZM258.97,236.16c-.71,0-.71,1.09,0,1.09s.71-1.09,0-1.09ZM261.16,94.1c-.71,0-.71,1.09,0,1.09s.71-1.09,0-1.09ZM261.16,193.54c.71,0,.71-1.09,0-1.09s-.71,1.09,0,1.09ZM261.71,219.77c-.7.84.36,3.06,1.09,2.19.7-.84-.36-3.06-1.09-2.19ZM263.35,114.87c-.71,0-.71,1.09,0,1.09s.71-1.09,0-1.09ZM263.35,237.26c-.71,0-.71,1.09,0,1.09s.71-1.09,0-1.09ZM264.44,126.88c-.71,0-.71,1.09,0,1.09s.71-1.09,0-1.09ZM264.44,252.55c.71,0,.71-1.09,0-1.09s-.71,1.09,0,1.09ZM266.08,125.79c-.7.84.36,3.06,1.09,2.19.7-.84-.36-3.06-1.09-2.19ZM266.62,239.44c.71,0,.71-1.09,0-1.09s-.71,1.09,0,1.09ZM267.17,235.62c0,1.54,3.18-1.64,1.64-1.64-.12,0-1.64,1.52-1.64,1.64ZM267.72,202.29c.71,0,.71-1.09,0-1.09s-.71,1.09,0,1.09ZM272.64,107.22c-1.24-1.03-4.29,2.18-2.73,2.18.35,0,.62-.93,1.09-1.09.3-.1,2.81-.11,1.64-1.09ZM270.45,216.49c.84.7,3.06-.36,2.19-1.09-.84-.7-3.06.36-2.19,1.09ZM272.09,214.3c.71,0,.71-1.09,0-1.09s-.71,1.09,0,1.09ZM272.09,220.86c-.71,0-.71,1.09,0,1.09s.71-1.09,0-1.09ZM273.18,228.52c-.71,0-.71,1.09,0,1.09s.71-1.09,0-1.09ZM278.65,105.03c-.71,0-.71,1.09,0,1.09s.71-1.09,0-1.09ZM283.02,98.47c-.71,0-.71,1.09,0,1.09s.71-1.09,0-1.09ZM283.02,108.31c-.71,0-.71,1.09,0,1.09s.71-1.09,0-1.09Z"/></g><g id="b"><path class="c" d="M140.4,128.98s108.36-31.19,119.07-18.49-112.27,108.18-112.27,108.18c0,0,109.05-57.12,106.31-13.11s-11.85,55.62-50.27,81.96-95.71-18.58-95.71-18.58"/></g></svg>