<?xml version="1.0" encoding="UTF-8"?><svg xmlns="http://www.w3.org/2000/svg" viewBox="0 0 400 400"><defs><style>.c{fill:none;stroke:#dc2a26;stroke-miterlimit:10;stroke-width:56px;}</style></defs><g id="a"><path d="M282.16,111.34c1.77,6.25-1.71,4.75-2.21,5.19-.52.47,1.09,4.58-1.79,3.45-.81-.32-1.79-2.94-2.9-1.74v3.48h3.48l-8.79,9.87c.68,5.1-9.16,8.81-12.07,11.65-.13.13.09,2.1-.58,3.49-.55,1.13-4.97,6.66-5.87,6.92-1.86.53-2.81-3.09-5.2-2.32l-3.48,2.9,5.8,3.48h-5.8c5.61,8.45-.29,3.3-1.16,4.06-2.43,2.11,2.6,2.37,2.32,2.9-.49.95-2.27,1.88-2.92,2.89-2.24,3.47-1.88,8.19-6.37,7,.49,1.44-.97,2.48-.96,2.87.02.46,1.22,1.13.92,2.23-.15.54-4.56,6.56-5.6,9.57-.35,1.02,0,2.54-.18,2.71-.37.36-3.06-.31-3.48.02-.49.38.89,1.19,1.09,1.9,1.01,3.61-4.42,9.68-4.38,10.27.38,5.56-3.64,10.62-5.82,16.44-2.71,7.24-4.23,15.74-7.26,22.93-.49,1.16-1.85,1.65-2.11,2.54-.4,1.39.24,4.8-.09,5.13-.21.21-4.62.56-5.8,1.17-.01,2.9,3.19-.34,3.48,0,.71.82-1.81,5.07-2.9,5.8-1.07.72.28-2.95-1.74-2.32-1.03,6.42,3.6,2.57,6.34,2.28,3.73-.39,8.48.33,11.65-.15.81-.12,1.56-1.58,2.32-2.13,1.2-.11.26,1.82.6,2.33.12.18,1.73-1,2.84-1.21,8.84-1.72,16.25-.56,25.47.18.53.04.93.87,1.29.88.65.03,1.57-1.87,2.32-2.17,2.52-1.01,1.42,1.84,1.78,2.27.73.86,8.38.88,9.77,1.26,1.13.31,2.45,3.76,4.1,5.18.64.55,3.31,2.29,4.2,2.79.57.33,1.43-.06,1.62.1.78.68-1.43,3.23-1.16,3.48.89.8,3.22-1.46,3.48-1.16,2.14,2.51-2.1,2.21-2.27,2.37-.2.17.13,4.51-1.79,4.58-.21,0-2.24-2-4.06-1.14-1.63,2.91,2.79,2.12,2.32,2.9-1.77,2.96-3.71-.25-4.65.58-.54.48,2.2,2.1.57,2.32l-2.86.57c1.61.74.45,2.63-.61,2.91-1.86.49-3.88-1.41-4.04-1.17-.29.44.26,1.86-.07,2.34-.29.41-1.56-1.68-2.24-.62l-.62,2.93-1.74-3.48c.34,1.16-.93,3.46-1.74,3.39-.3-.03-.68-.84-1.13-.77-2.19.35-4.84,2.23-7.01-.29-1.19-.09-.26,1.83-.59,2.32-.19.28-4.81-2.18-6.32-2.37-5.35-.67-13.48-.93-18.63-.92-1.42,0-3.44,1.25-6.97,1.23-4.45-.03-12.1,4.46-16.36,5.43-1.58.36-5.96-.19-6.25.13-.16.18.2,1.85-1.15,2.93-2.63,2.11-7.87,3.05-10.53,4.56-1.18.67-2.96,3.76-4.09,4.09-1.1.32-3.01-1.95-3.99-1.14-.38.31,2.27,1.76-.58,3.48-1.14.69.31-3.57-1.74-1.74-2.36,2.09-4.42,1.6-4.6,1.78-1.7,1.78.58,1.15-3.98,3.57-1.12.59-1.72,1.85-2.56,2.09-1.88.53-4.81.73-6.89,1.32-1.87-1.2-4.02-.85-5.67-1.32-1.41-.4-3.83-4.39-5.88-2.45-2.53-1.96-6.27-1.98-8.76-3.81-3.28-2.41-1.74-5.88-3.99-8.78-1.04-1.34-2.76-.99-2.93-1.14-.32-.29.16-3.5-.02-4.62-2.08-.46-.78,1.88-1.16,2.32-.57.66-3.2-.77-3.48-1.77-.29-1.03,2.01-4.67,2.24-5.93.21-1.15-.92-1.83-.94-2.19-.04-.82,4.12-3.71,5.17-3.98,1.94-.49,2.86.84,3.39.84,1.05,0,4.78-1.77,5.95-2.01,1.2-.24,2.38,1.65,4.44,1.05.95-.28,2.21-2.62,3.65-3.33,4.11-2.06,11.49-3.07,16.68-5.38,4.88-2.17,10.82-5.97,15.15-9.23,7.37-5.55,14.44-22.41,16.38-31.22,1.95-8.86,4.4-17.92,6.56-26.87,4-16.64,6.92-31.53,14.07-48.87,2.25-5.47,4.85-11.75,7.23-17.15,1.1-2.49,2.45-5.23,4.51-7.09-.79-1.73-2.12.04-3.07.41-6.97,2.69-13.29,3.51-20.58,4.96-1.28.25-4.88,1.9-5.94,1.9-.35,0-.98-.72-2.18-.77-.44-.02-.89.82-1.32.83-1.58.03-7.16-4.71-9.8-4.49-1.54-3.62-3.18-7.25-4.84-10.83-2.31-4.99-2.2-5.11-3.46-10.47-.32-1.35-3.28-5.29-3.28-5.92,0-.83,2.84-3.01,2.1-5.65-.2-.71-1.45-1.57-1.02-1.87.69-.47,3.49,1.12,2.29-2.89-.22-.72-1.36-1.15-1.74-1.74-1.41-2.23-.6-5.96,2.38-5.9.95.02,3.96,1.49,5.16.01.36-.44-.21-1.94.07-2.26.4-.47,5.51.94,5.73,1.2.16.18-.05,1.39.59,2.31,1.24,1.78,2.99.78,4.59,1.23.93.26,3.07,2.89,4.85,3.28,4.97,1.08,11.06-3.86,7.44,2.43,1.76-.79,3.67,1.02,4.07,1.03.62.01,1.15-1.39,1.7-1.65,1.63-.76,7.16-3.79,7.59-3.77.59.02,1.4,1.32,1.69.91.32-.45-.27-1.84.13-2.24.41-.41,1.87.18,2.26-.11.43-.32-1.61-1.89-1.17-2.29.34-.3,2.99.24,4.11.04,9.17-1.64,11.18-1.5,19.7-1.43.72,0,3.34-1.79,5.22-.93.37,2.3-2.9.68-3.48,1.16-.36.3,1.28,2.18,1.77,2.32,1.17.33,2.28-1.67,4.5-1.08,1.98.53,12.54,3.95,12.93,4.53.62.9.45,2.2.56,2.33.27.31,3.5-.16,4.62.02l-2.32,3.48c1.37-.62,3.16,1.53,3.48,1.16.31-.35-.96-4.78,1.74-3.48,1.19.57,3.73,4.37,4.69,5.78,1.98,2.91,2.62,3.12,5.19,5.22.74.6,3.24,3.04,3.4,3.59h0ZM129.55,296.46c-.75,0-.75,1.16,0,1.16s.75-1.16,0-1.16ZM129.55,303.43c-.75,0-.75,1.16,0,1.16s.75-1.16,0-1.16ZM146.97,302.27c-.12,0-1.74,1.62-1.74,1.74,0,1.64,3.38-1.74,1.74-1.74ZM148.71,310.39c-.74.89.38,3.25,1.16,2.32.74-.89-.38-3.25-1.16-2.32ZM157.42,304.59c-.75,0-.75,1.16,0,1.16s.75-1.16,0-1.16ZM163.23,288.34c-.12,0-1.74,1.62-1.74,1.74,0,1.64,3.38-1.74,1.74-1.74ZM164.39,298.78c-.75,0-.75,1.16,0,1.16s.75-1.16,0-1.16ZM170.19,107.21c-.75,0-.75,1.16,0,1.16s.75-1.16,0-1.16ZM174.26,275.56c.21-.21.26-2.81-.58-2.32-3.35,1.95-.61,3.51.58,2.32ZM175.42,299.95c-2.45-.3-2.62-.12-2.32,2.32l2.32-2.32ZM173.68,114.17c-.75,0-.75,1.16,0,1.16s.75-1.16,0-1.16ZM180.64,268.59c-.75,0-.75,1.16,0,1.16s.75-1.16,0-1.16ZM181.8,253.5c-.75,0-.75,1.16,0,1.16s.75-1.16,0-1.16ZM188.19,291.82c-.14-.11-3.35-.11-3.48,0-1.82,1.52,5.31,1.52,3.48,0ZM187.03,133.33c0-.12-1.62-1.74-1.74-1.74-1.64,0,1.74,3.38,1.74,1.74ZM189.35,135.08c-.89-.74-3.25.38-2.32,1.16.89.74,3.25-.38,2.32-1.16ZM189.93,95.6c-.75,0-.75,1.16,0,1.16s.75-1.16,0-1.16ZM192.83,108.37c-.89-.74-3.25.38-2.32,1.16.89.74,3.25-.38,2.32-1.16ZM192.83,131.59c-.89-.74-3.25.38-2.32,1.16.89.74,3.25-.38,2.32-1.16ZM192.25,133.91c-.75,0-.75,1.16,0,1.16s.75-1.16,0-1.16ZM192.25,238.41c-.75,0-.75,1.16,0,1.16s.75-1.16,0-1.16ZM198.64,133.91c-.14-.11-3.35-.11-3.48,0-1.82,1.52,5.31,1.52,3.48,0ZM196.31,231.44c.74-.89-.38-3.25-1.16-2.32-.74.89.38,3.25,1.16,2.32ZM195.73,97.92c.75,0,.75-1.16,0-1.16s-.75,1.16,0,1.16ZM196.9,258.15c-3.35,1.95-.61,3.51.58,2.32.21-.21.26-2.81-.58-2.32ZM196.32,224.48c-.74.89.38,3.25,1.16,2.32.74-.89-.38-3.25-1.16-2.32ZM196.9,211.71c.75,0,.75-1.16,0-1.16s-.75,1.16,0,1.16ZM198.58,206.54c.14.4.22,2.86,1.21,1.68.7-.82-.98-2.72-.97-2.91.02-.38,1.85-1.74.4-1.74-.12,0-1.74,1.62-1.74,1.74,0,.28.9.62,1.1,1.22ZM198.06,124.63c.75,0,.75-1.16,0-1.16s-.75,1.16,0,1.16ZM198.06,131.59c.75,0,.75-1.16,0-1.16s-.75,1.16,0,1.16ZM199.22,231.44c-.75,0-.75,1.16,0,1.16s.75-1.16,0-1.16ZM199.8,218.67c-1.52-1.82-1.52,5.31,0,3.48.11-.13.11-3.35,0-3.48ZM199.8,212.28c-.49.84,2.11.79,2.32.58,1.19-1.19-.37-3.94-2.32-.58ZM200.38,224.48c-.75,0-.75,1.16,0,1.16s.75-1.16,0-1.16ZM201.54,100.24c-.75,0-.75,1.16,0,1.16s.75-1.16,0-1.16ZM201.54,222.15c-.75,0-.75,1.16,0,1.16s.75-1.16,0-1.16ZM202.7,115.34c-.75,0-.75,1.16,0,1.16s.75-1.16,0-1.16ZM202.7,189.64c-.75,0-.75,1.16,0,1.16s.75-1.16,0-1.16ZM206.77,132.75l-2.32-2.32c-.3,2.45-.12,2.62,2.32,2.32ZM207.35,212.87c-.75,0-.75,1.16,0,1.16s.75-1.16,0-1.16ZM208.51,197.77c-.75,0-.75,1.16,0,1.16s.75-1.16,0-1.16ZM210.83,281.37c.75,0,.75-1.16,0-1.16s-.75,1.16,0,1.16ZM211.41,212.87c-.74.89.38,3.25,1.16,2.32.74-.89-.38-3.25-1.16-2.32ZM211.99,224.48c-.75,0-.75,1.16,0,1.16s.75-1.16,0-1.16ZM214.89,160.62c-.93-1.08-2.74,4.14-2.32,4.64.04.04,1.12.04,1.16,0,.16-.18,1.32-4.46,1.16-4.64ZM213.15,169.91c-.75,0-.75,1.16,0,1.16s.75-1.16,0-1.16ZM213.15,191.97c-.75,0-.75,1.16,0,1.16s.75-1.16,0-1.16ZM213.15,195.45c-.75,0-.75,1.16,0,1.16s.75-1.16,0-1.16ZM214.93,157.76c.25-.57,1.64-1.35,1.12-1.78-3.17-2.62-2.67,5.29-1.16,3.48.18-.22-.23-1.08.04-1.7h0ZM214.31,152.49c.75,0,.75-1.16,0-1.16s-.75,1.16,0,1.16ZM214.89,110.69c-.74.89.38,3.25,1.16,2.32.74-.89-.38-3.25-1.16-2.32ZM215.47,215.19c-.75,0-.75,1.16,0,1.16s.75-1.16,0-1.16ZM216.63,93.28c-.75,0-.75,1.16,0,1.16s.75-1.16,0-1.16ZM223.58,196.62c-.29-1.48.97-1.82.6-3.48-.92.85-3.32,1.06-3.44,1.2-.54.58-1.14,5.49-3.52,6.35l4.58-1.82c.38-.39-.2-1.83.12-2.25.29-.38,1.37,1.07,1.7,1.07,1.26-.01,0-.87-.03-1.07h0ZM217.79,128.11c-.75,0-.75,1.16,0,1.16s.75-1.16,0-1.16ZM218.38,160.62c.11-.14.11-3.35,0-3.48-1.52-1.82-1.52,5.31,0,3.48ZM219.54,284.85c.89.74,3.25-.38,2.32-1.16-.89-.74-3.25.38-2.32,1.16ZM220.12,205.9c-.75,0-.75,1.16,0,1.16s.75-1.16,0-1.16ZM224.18,90.96c-.13-.11-3.35-.11-3.48,0-1.82,1.52,5.31,1.52,3.48,0ZM227.66,275.56c.61-.49-2.32-3.26-3.48-2.32-.61.49,2.32,3.26,3.48,2.32ZM224.76,283.69c-.75,0-.75,1.16,0,1.16s.75-1.16,0-1.16ZM228.24,139.72c-.75,0-.75,1.16,0,1.16s.75-1.16,0-1.16ZM228.24,182.68c-.75,0-.75,1.16,0,1.16s.75-1.16,0-1.16ZM228.24,260.47c.75,0,.75-1.16,0-1.16s-.75,1.16,0,1.16ZM231.14,284.85c.74-.89-.38-3.25-1.16-2.32-.74.89.38,3.25,1.16,2.32ZM235.79,276.72c.85-.69-3.47-4.58-5.81-.58-.5.86,5.54.79,5.81.58ZM230.57,259.31c.75,0,.75-1.16,0-1.16s-.75,1.16,0,1.16ZM230.57,279.04c-.75,0-.75,1.16,0,1.16s.75-1.16,0-1.16ZM232.89,151.33c-.75,0-.75,1.16,0,1.16s.75-1.16,0-1.16ZM232.89,165.26c-.75,0-.75,1.16,0,1.16s.75-1.16,0-1.16ZM235.79,89.8c-.89-.74-3.25.38-2.32,1.16.89.74,3.25-.38,2.32-1.16ZM234.05,283.69c-.75,0-.75,1.16,0,1.16s.75-1.16,0-1.16ZM234.63,258.15c.89.74,3.25-.38,2.32-1.16-.89-.74-3.26.38-2.32,1.16ZM235.21,158.3c-.75,0-.75,1.16,0,1.16s.75-1.16,0-1.16ZM236.37,171.07c-.75,0-.75,1.16,0,1.16s.75-1.16,0-1.16ZM237.53,168.74c-.75,0-.75,1.16,0,1.16s.75-1.16,0-1.16ZM238.69,109.53c-.75,0-.75,1.16,0,1.16s.75-1.16,0-1.16ZM238.69,164.1c-.75,0-.75,1.16,0,1.16s.75-1.16,0-1.16ZM242.76,107.21c-.89-.74-3.25.38-2.32,1.16.89.74,3.25-.38,2.32-1.16ZM242.18,132.75c-.75,0-.75,1.16,0,1.16s.75-1.16,0-1.16ZM246.82,118.82c-.75,0-.75,1.16,0,1.16s.75-1.16,0-1.16ZM246.82,147.85c-.75,0-.75,1.16,0,1.16s.75-1.16,0-1.16ZM249.14,145.52c-.75,0-.75,1.16,0,1.16s.75-1.16,0-1.16ZM252.63,96.76c.75,0,.75-1.16,0-1.16s-.75,1.16,0,1.16ZM252.63,259.31c.75,0,.75-1.16,0-1.16s-.75,1.16,0,1.16ZM252.63,270.92c.75,0,.75-1.16,0-1.16s-.75,1.16,0,1.16ZM253.21,146.69c-.74.89.38,3.25,1.16,2.32.74-.89-.38-3.25-1.16-2.32ZM254.95,283.69c.75,0,.75-1.16,0-1.16s-.75,1.16,0,1.16ZM257.27,281.37c.75,0,.75-1.16,0-1.16s-.75,1.16,0,1.16ZM260.17,135.07l-2.32-2.32c-.3,2.45-.12,2.62,2.32,2.32ZM258.43,139.72c-.75,0-.75,1.16,0,1.16s.75-1.16,0-1.16ZM259.01,279.04c.89.74,3.25-.38,2.32-1.16-.89-.74-3.25.38-2.32,1.16ZM259.59,96.76c.75,0,.75-1.16,0-1.16s-.75,1.16,0,1.16ZM261.92,130.43c-.75,0-.75,1.16,0,1.16s.75-1.16,0-1.16ZM261.92,133.91c-.75,0-.75,1.16,0,1.16s.75-1.16,0-1.16ZM261.92,267.44c.75,0,.75-1.16,0-1.16s-.75,1.16,0,1.16ZM264.82,276.72c-1.27-1.27-3.59,1.05-2.32,2.32,1.27,1.27,3.59-1.05,2.32-2.32ZM264.82,262.79l-2.32-2.32c-.3,2.45-.12,2.62,2.32,2.32ZM265.98,101.41c-.89-.74-3.25.38-2.32,1.16.89.74,3.25-.38,2.32-1.16ZM266.56,276.73c.75,0,.75-1.16,0-1.16s-.75,1.16,0,1.16ZM267.14,131.59c-.74.89.38,3.25,1.16,2.32.74-.89-.38-3.25-1.16-2.32ZM268.88,99.08c-.75,0-.75,1.16,0,1.16s.75-1.16,0-1.16ZM268.88,104.89c-.75,0-.75,1.16,0,1.16s.75-1.16,0-1.16ZM270.04,270.92c.75,0,.75-1.16,0-1.16s-.75,1.16,0,1.16ZM270.62,125.79c-.74.89.38,3.25,1.16,2.32.74-.89-.38-3.25-1.16-2.32ZM274.11,107.21c-.89-.74-3.25.38-2.32,1.16.89.74,3.25-.38,2.32-1.16ZM273.53,123.46c-.75,0-.75,1.16,0,1.16s.75-1.16,0-1.16ZM281.07,114.17l-2.32-2.32c-.3,2.45-.12,2.62,2.32,2.32Z"/></g><g id="b"><path class="c" d="M157.98,120.56s79.2-25.46,98.72-11.54c15.81,11.27-37.38,56.86-49.92,81.03-16.29,31.38-20.31,46.95-31.37,56.7s-92.16,82.72-61.04,62.68c45.64-29.39,69.04-35.31,91.17-37.13s82.39,7.74,82.39,7.74"/></g></svg>