<?xml version="1.0" encoding="UTF-8"?><svg id="a" xmlns="http://www.w3.org/2000/svg" viewBox="0 0 256 256"><defs><style>.b{fill:#f5de85;}.c{fill:#eba78e;}.d{fill:#c7912e;}.e{fill:#f9dcc0;}.f{fill:#293034;}.g{fill:#686868;}.h{fill:#334452;}.i{fill:#040302;}.j{fill:#292929;}.k{fill:#3d3d3d;}.l{fill:#e5bb41;}</style></defs><path class="i" d="M50,0c9.05.71,17.24,1.64,22.98,9.62,12.49-3.61,29.09,7.69,25.83,21.05-10.74,1.28-12.31,8.45-9.95,17.79,5.95-2.99,12.12-5.51,18.53-7.54,5.95-6.89,12.81-10.73,20.6-11.51,7.77.8,14.67,4.63,20.69,11.5,6.38,2.01,12.52,4.49,18.44,7.47,2.42-9.32.9-16.35-9.82-17.78-3.37-13.12,13.89-25.28,25.89-20.53C187.97,3.27,195.24-.08,205,0h11l14.73,1.82c3.11,1.89,3.36,3.97.85,6.66-9.27,4.25-16.78,10.3-22.53,18.16-5.86,14.89-11.58,29.99-17.17,45.29,4.39,6.4,7.64,13.41,9.75,21.04l1.25.6c8.93-4.43,19.03-8.12,29.12-6.05,6.45,11.54,12.54,23.3,18.28,35.3.89,3.08,1.31,5.25-1.86,7.1-10.16.48-19.5,2.93-28.04,7.37,7.24,14.21,14.22,28.67,20.93,43.39,8.62,17.12,1.44,30.87-12.96,40.74-4.64,3.18-12.41,6.99-17.06,1.96-1.1-1.19-2.85-15.21-2.9-17.43l-18.09-5.11-9.61,24.13c-10.25,15.26-27.38,30.92-46.71,31.04h-13c-18.78-.64-35.76-16.2-45.74-31.13l-9.77-23.96-17.13,5.06-3.42,16.99c-2.59,4.42-8.88,2.82-12.79,1.05-15.54-7.05-27.21-25.67-17.79-42.33,6.75-15.06,13.84-29.83,21.27-44.32-8.36-4.54-17.58-6.97-27.65-7.28-3.36-1.96-3.16-3.76-2.28-7.15,5.76-11.99,11.87-23.79,18.32-35.41,10.25-2.09,20.48,1.76,29.56,6.18,2.64-7.53,6.14-14.74,10.5-21.61l-5.89-14.79c-5.08-21.66-12.34-40.08-33.7-48.61-2.65-2.85-2.68-4.57.72-6.73L39,0h11Z"/><path class="e" d="M88.9,155.18c-.7,7.33-.44,15.18,7.28,17.61,2.29.72,6.73-.17,8.58-2.01,3.49-3.48,4.82-8.33,4.24-12.78.1-1.02,1.43-1.3,4-.84.47.11,1.91.14,1.98.13.88-1.14,2.01-1.22,3.38-.24l19.64.03c1.46-.81,2.78-.75,3.94.17l3.06-.14c1.83-.53,2.5-.23,2,.89-.4,2.83,1.07,9.83,3.17,11.81,2.33,2.19,6.15,3.78,9.09,3.15,8.27-1.79,8.71-11.27,7.82-17.75-1.24-2.69,10.33-4.66,11.64-4.47,6.4.91,7.23,8.98,6.36,14.67-.11.74-.24,1.32-1,1.68-9.46,16.89-34.23,13.9-43.68,3.68-3.69-3.99-7.61-7.19-12.92-6.97-4.6.19-8.48,3.25-11.87,6.91-8.86,9.58-29.56,12.55-40.1.87-1.63-1.8-2.99-3.21-4.44-4.51-.48-5.63-1.25-15,5.39-16.34.85-.23,13.24,1.7,12.44,4.46Z"/><path class="h" d="M111.61,203.39l10.06,5.65c3.81.88,5.26,2.28,4.37,4.2-.7,2.41-3.09,2.92-7.15,1.52l-11.74-3.07c-13.39-.93-10.34,18.84,1.18,18.44,12.97-3.38,25.73-2.77,38.63-.28,14.04-.1,14.89-19.22.48-18.61l-2.14-1.42c-2-3.02,6.9-8.86,8.82-8.43,3.53.79,10.63,14.16,8.81,18.56l-.94,5.97.34,2.74c-6.5,9.3-15.71,17.28-26.34,21.4-13.12,2.35-25.81-.64-36.22-9.97-2.15-1.93-5.38-3.69-6.82-5.96-6.35-6.64-13.09-17.44-14.36-26.63l1.37-3.28,9.14-.07c-3.5,7.22-2.32,19.82,2.32,22.5.75.43,3.01-1.9,2.52-2.95-5.89-12.68.37-22.2,9.75-30.89.4,5.5,2.92,10.36,7.91,10.59Z"/><path class="h" d="M135.04,173.35c2.99,3.66,4.42,10.52,1.75,14.58.08.52.19,1.54.24,2.09,2.25,1.98.73,5-.72,7.27-4.63,7.3-13.92,3.1-19.78-.11-3.06-.22-5.48-1.04-7.28-2.46-.32-2,.58-5.87,2.35-6.13,3.3,1.05,5.53,2.89,7.8,1.16,3.51,2.07,2.59-4.22,2.52-3.91-.29,1.34-.96,1.87-2.4,2.27-15.47-15.66-23.61,18.5-41.51,9.84-2.92-2.34-4.12-4.41-4.89-7.98-.69-3.22-1.41-9.82,2.06-10.96,15.52,8.74,35.34,6.37,47-7.76,1.59-1.93,5.7-2.57,8.01-2.15,1.7.31,3.41,3.19,4.83,4.25Z"/><path class="k" d="M139.06,113.35c15.29-2.22,26.02,14.49,7.07,19.22-11.57,1.02-22.88,2.43-35.17.54l-7.02-1.08c-.7-.35-1.72-.97-1.58-1.51,1.08-4.3,4.49-13.68,6.41-17.7l2.36-.65,17.94,1.65,9.98-.47Z"/><path class="l" d="M87.82,26.12c-3.71,3.53-6.5,7.53-6.38,13.42.08,3.86-.47,9.67.43,13.17l-2.89,1.05c-7.89-3-14.14-7.66-18.73-14.01-4.31-13.4-9-21.2-19.31-29.89.27-3.38,5.64-2.86,8.47-2.53,7.96.93,15.19,6.27,20.39,12.1,5.32-1,10.36-.56,15.12,1.31,3.28,1.53,4.24,3.32,2.9,5.38Z"/><path class="l" d="M215.86,8.99c-10.31,8.17-16.19,18.96-20.08,30.82-3.36,4.77-7.85,8.61-13.48,11.51-3.57,2.61-6.26,2.9-8.05.87l.36-12.73c.16-5.7-2.73-10.07-6.61-13.31-1.8-2.65,1.16-4.36,3.42-5.58,3.82-2.07,9.41-2.55,13.32-.55l12.76-9.64c5.27-2.45,13.92-5.31,18.36-1.38Z"/><path class="j" d="M146.13,132.57c1.61-1.4,3.76-2.83,6.14-4.5,3.77-2.64,1.24-10.05-2.93-11.28-3.92-1.16-7.52-1.74-10.28-3.44,3.18-1.1,7.66-2.65,11.26-1.92,2.23.45,43.36,9.26,30.43,15.28-11.21,5.22-23.18,4.85-34.62,5.86Z"/><path class="k" d="M208.72,125.99c-4.75-1.06-8.9-7.97-7.87-12.69,6.61-5.71,13.88-9.65,22.52-11.44l7.37,14.69c-7.42,3.22-15.7,4.94-22.02,9.44Z"/><path class="k" d="M55.33,113.29c.33,5.35-3.05,10.76-8.06,12.7-7.45-3.8-14.14-6.71-21.97-9.44l7.25-14.52c9.17,1.45,16.68,5.65,22.78,11.26Z"/><path class="k" d="M125.33,73.24c-14.87,1.59-15.92,16.72-18.44,13.31-3.16-4.27,7-37.93,18.4-41.09l.04,27.78Z"/><path class="l" d="M88.93,73.14c2.97,3.15,1.54,7.22-.6,11.65l-11.14-2.28c-5.8-9.53-9.44-19.49-12.72-29.68.23-.43.49-.82.84-1.11,1-.81,15.91,8.4,17.64,10.13l5.99,11.29Z"/><path class="l" d="M191.5,52.86c-3.34,10.19-6.88,20.36-12.64,29.74l-11.61,2.29-2.03-7.22c-.38-1.35,1.18-3.59,1.65-4.66,2.33-3.49,4.35-7.18,6.05-11.07l16.39-10.28,2.2,1.2Z"/><path class="f" d="M135.99,250.06c14.38-10.76,13.95-9.35,25.99-24.14,7.85,3.34,8.3-16.55,4.96-21.68l14.7-1.01c-8.21,23.36-8.64,22.86-24.83,36.51-6.51,5.49-13.11,8.93-20.83,10.32Z"/><path class="l" d="M136.07,81.04c12.67,16.29-18.74,32.11-22.96,10.96.51-5.75,4.07-10.23,7.49-12.09,6.23-3.39,10.96-1.21,15.47,1.13Z"/><path class="j" d="M190.72,193.65c3.04-8.8,4.86-17.15,1.12-25.76-.56-3.71.24-9.41,1.28-14.39,6.77,14.59,11.12,28.83,15.07,44.64l-17.48-4.5Z"/><path class="j" d="M64.25,167.41c-3.82,8.69-1.74,17.23.82,26.35l-17.12,4.26c3.43-15.15,8.28-29.74,14.8-44.4,1.08,4.73,2.14,10.2,1.5,13.79Z"/><path class="k" d="M147.97,75.99c.81,2.84-2.39,5.15-4.7,3.12-4.13-2.92-7.53-4.51-12.61-6.23l.14-27.54c11.32,6.87,15.01,19.21,17.17,30.66Z"/><path class="c" d="M141.94,157.25c-.46.59-2.73,1.81-3.84,1.8l-20.02-.04c-.77,0-2.63-1.16-3.11-1.72l2.33-5.17-11.68-6.03c15.63,1.16,29.14,1.04,44.74-.07l-10.83,5.84c-1.41.76.93,5.13,2.41,5.39Z"/><path class="f" d="M162.93,219.95c-2.24-6.01-4.55-11.37-9.12-16.94-3.47,2.22-6.03,4.28-8.5,6.81-1.19,3.05-4.27,4.76-9.24,5.13-4.67,1.43-8.01.86-10.03-1.71.51-.54-16.08-9.07-14.42-9.85,2.39.11,4.66.5,6.64,2.19,7.38,6.31,16.26,3.46,22.96-2.24,2.33-.35,7-.62,8.16-2.28,1.64-2.33,2.34-4.82,3.06-8.14,6.78,5.66,15.93,18.46,10.5,27.02Z"/><path class="d" d="M174.27,88.52c-7.44,9.46-17.98,16.11-30.91,18.22,4.07-3.46,3.14-10.33,5.71-13.57,3.56-4.48,9.24-6.58,12.45-12.1l2.44,7.71,10.3-.26Z"/><path class="h" d="M176.87,181.15c3.84-.39,3.38,4.98,2.99,7.89-.49,3.66-2.18,8.72-5.97,9.89-14.63.72-13.35-9.98-27.76-14.9-2.77-.83-3.4-1.19-.85-3.07,10.46,3.1,21.54,5.1,31.59.18Z"/><path class="d" d="M111.55,106.31c-11.14-1.73-21.84-7.82-29.84-17.79l10.34.48,2.05-7.35,12.66,11.14,4.79,13.52Z"/><path class="d" d="M113.12,92c2.74,6.69,10.13,10.04,16.63,7.06,7.04-3.23,9.01-11.06,6.32-18.02,7.21,3.74,8.85,12.37,5.15,19.51-3.13,6.04-10.54,9.51-17.39,7.34s-11.38-8.55-10.72-15.89Z"/><path class="k" d="M236.04,203.04c-2.97,4.67-6.74,8.53-10.75,11.71l-5.15-25.11,8.98-7.8c.76-.41,2-.68,2.27-.11,3.02,6.3,6.67,14.32,4.65,21.31Z"/><path class="k" d="M20.88,203.85c-1.05-7.43,1.38-15.42,6.47-20.94l8.54,6.53-5.24,25.5c-3.86-3.47-7.71-7.01-9.78-11.08Z"/><path class="c" d="M184.08,167.08c.02-4.89-.79-10.09-3.61-14.66l-13.39,2.8c-.23-1.68-3.13-3.92-4.19-5.19l11.06-2.47c.92-.2,2.89-1.32,2.82-2.2l-.26-3.58,10.25-2.8c1.69,2.71,1.35,30.86-2.68,28.1Z"/><path class="c" d="M88.9,155.18l-13.89-2.7c-2.31,5.66-3.33,9.65-3.94,14.59l-2.28-9.08c-.9-6.53-.96-12.25.43-19.03l10.5,2.8c-.18,1.98-.31,3.4-.31,4.33,0,1.98,9.87,1.95,13.17,4.08l-3.7,5.02Z"/><path class="j" d="M208.72,125.99c-6.04,4.3-10.06,10.24-15.05,15.57l-2.52-4.85c2.23-2.3,4.29-4.91,3.93-7.12-.3-1.85-2.06-4.7-3.35-6.92,1.95-3.6,5.6-7.43,9.12-9.37,2.36,4.39,4.9,8.75,7.87,12.69Z"/><path class="k" d="M101.3,81.3c-3.92-4.6-6.54-9.13-9.11-14.38,5.2-7.8,11.34-13.84,20.66-17.84-5.34,9.98-9.23,19.76-11.55,32.21Z"/><path class="j" d="M47.27,126c2.88-4.08,5.53-8.37,8.06-12.7,3.08,2.83,7.39,5.9,9.21,9.45-1.9,2.5-3.64,5.41-3.61,7.67.03,1.74,2.11,4.3,3.76,6.34-.08,1.04-1.53,3.72-2.41,4.85-4.73-6.12-9.6-10.72-15.02-15.62Z"/><path class="b" d="M87.82,26.12c-4-6.21-11.66-5.65-18.1-4.36-7.57-8-18.35-15.32-28.78-11.89-1.22-1.03-2.81-1.92-5.15-3.66l9.14-.71c10.51-.82,20.32,3.46,25.65,12.97,7.29-3.89,15.05-2.48,19.31,3.64.41.6,1.46,2.82.78,3.05l-2.85.97Z"/><path class="b" d="M215.86,8.99c-11.18-1.24-21.95,3.63-29.49,13.03-6.83-2.31-14.21-1.71-18.38,4.12-1.08.22-3.02-1.69-2.63-2.56,2.48-5.57,12.74-10.88,19.93-4.83,5.36-9.78,14.44-13.85,24.78-13.21l10.19.63-4.4,2.82Z"/><path class="b" d="M195.78,39.8l-4.28,13.06c-4.21,1.65-7.74,5.39-12.16,7.48-10.92,5.17-5.52,7.96-12.48,12.66,2.13-4.91,6.04-15.79,7.4-20.82,2.77-.4,5.77-1.67,8.37-3.43l13.16-8.94Z"/><path class="b" d="M81.87,52.71c1.78,6.94,4.76,13.66,7.06,20.43-2.24-2.37-4.61-6.8-6.61-9.32l-15.4-9.87c-.55-.35-1.94-.93-2.46-1.12l-4.21-13.07c6.95,4.72,13.71,10.28,21.61,12.96Z"/><path class="k" d="M217.84,157.8c5.43,2.18,9.92,12.19,8.53,17.9-2.19,3.4-4.47,5.85-7.75,8.37l-7.46-22.07,6.68-4.2Z"/><path class="f" d="M109.26,194.72c8.7-1.32,16.79,7.99,23.79,3.3,1.99-1.33,3.08-5.17,3.98-8,1.89,1.48,4.57-.82,7.12-1.12,3.24-.38,4.11,8.13.93,8.71s-6.4,1.23-8.38,2.95c-5.46,4.72-11.98,4.61-17.39-.06s-9.13.07-10.05-5.77Z"/><path class="d" d="M134,142l-.3-1.3c3.29-.74,6.61-1.66,9.96-2.77,12.01-1.23,23.76-3.43,36.05-6.2,2.63-.59,5.02-3.09,7.35-5.57,12.81,8.25-23.64,13.1-28.27,13.53l-24.79,2.31Z"/><path class="f" d="M173.89,198.94c2.87-5.73,5.98-11.76,2.98-17.79,4.06-1.99,7.15-6.18,11.07-9.28,1.99,12.07-1.42,26.45-14.05,27.07Z"/><path class="k" d="M30.18,176c-.9-5.79,3.33-15.46,8.65-18.06l6,4.13-7.43,21.93c-3.33-2.5-5.87-5-7.23-8.01Z"/><path class="j" d="M152.35,70c-.82-5.52-2.33-10.82-4.54-15.89l1-1.07c6.73,1.54,10.38,8.4,15.23,13.83-2.84,5.47-4.79,9.04-9.31,14.43l-2.38-11.29Z"/><path class="l" d="M235.76,110.02l6.81,13.47c-10.79,1.09-21.28,3.94-30.35,9.48-3.03.52-2.09-.92-.38-2.71,7.21-5.53,13.89-8.64,24.45-9.92-1.54-4.32-2.97-7.56-4.76-11.1.67-2.4,2.07-2.14,4.22.78Z"/><path class="l" d="M23.18,110.82c-1.63,2.97-2.37,6.45-3.23,9.52,10.14,1.34,17.19,4.67,24.16,9.53,2.07,1.94,1.87,3.02-1.07,2.89-9.39-5.6-19.34-8.54-29.73-9.22l6.64-13.34c1.56-2.37,2.94-2.31,3.23.63Z"/><path class="j" d="M193.08,101.85l-6.6,7.15-4.41-20.31c-.51-2.36,1.89-5.65,3.91-6.7.64.08,1.25.2,1.76.5,1.78,1.01,7.85,16.62,5.34,19.36Z"/><path class="g" d="M100,113.2l1.35,1.87c-2.3,5.05-4.59,10.1-6.89,15.15l-2.41.47c-2.79-.12-5.53-1.11-8.19-1.75-3.74-2.32,2.86-10.11,5.34-12.81,3.49-.88,7.05-3.28,10.8-2.93Z"/><path class="g" d="M111.13,112.17l-7.19,19.86-7.71-.41c.04-6.83,3.59-14.77,8.61-19.4,2.25-1.24,4.06-.24,6.29-.04Z"/><path class="l" d="M143.66,137.93c-.51.87-1.99,1.85-3.15,2.19l-6.51,1.88c-11.1.52-22.08-.73-33.01-2.28-2.94-.3-2.6-2.18.06-2.89l24.05,1.59c5.91.39,12.95.08,18.56-.49Z"/><path class="k" d="M63.84,102.73c-.65-.92-1.35-1.96-1.22-3.06.59-4.91,3.66-15.21,8.28-16.85,1.79,1.44,3.44,4.19,3.08,5.85l-4.46,20.33-5.68-6.27Z"/><path class="g" d="M75.2,179.02c-1.01,6.48-.51,13.26,2.83,18.94-10.93-5.29-10.87-13.89-9.75-25.89,2.78,2.45,5.02,4.77,6.92,6.95Z"/><path class="k" d="M89.2,116.13c.59,4.81-5.12,8.63-5.34,12.81-3.84-.92-8.59-.72-11.34-4.79,4.3-5.95,10.86-6.55,16.68-8.02Z"/><path class="g" d="M79.97,204.22c1.93,11,7.04,20.55,12.99,29.91-8.97-4.75-15.53-20.44-18.57-30.95,2.99.16,4.22.44,5.59,1.04Z"/><path class="g" d="M27.35,182.91c-2.39,6.88-4.51,13.91-6.47,20.94-6.25-5.88-.45-18.27,3.27-26.31,1.48,2.2,2.32,3.6,3.2,5.36Z"/><path class="l" d="M59.92,106.99c2.12,2.05.71,3.29-1.8,2.16-8.06-5.19-15.77-8.93-24.23-11.32-2.62-1.16-1.61-3.27,1.19-2.89,9.8,1.37,18.52,5.61,24.84,12.05Z"/><path class="j" d="M215.95,151.28l-6.57,5.78-4.4-9.63,6.42-6.93c1.65,1.29,4.54,3.9,5.17,4.96-.77,2.39-.93,2.61-.63,5.83Z"/><path class="d" d="M39.06,214.47c-.26,1.22.1,3.6-.54,3.55l-2.87-.23c-.64-.05-1.02-2.17-.88-2.82l4.52-22.16c1.32-.16,4.05,1.82,3.74,3.26l-3.98,18.4Z"/><path class="d" d="M217.03,214.95l-4.07-18.95c-.29-1.35,2.44-3.31,3.76-3.2l4.53,22.11c.15.74-.12,2.79-.76,2.85l-3.02.25c-.64.05-.27-2.25-.44-3.05Z"/><path class="g" d="M70.91,82.82c-3.36,6.05-5.35,13.1-7.06,19.91-8.5-1.24,2.74-20.87,4.62-24.77l2.44,4.86Z"/><path class="l" d="M219.75,95.24c2.83-.65,3.35,1.09,1.08,2.79-5.89,2.07-17.88,7.2-22.94,11.13-2.07,1.98-3.46.11-1.8-2.16,6.56-6.47,15.07-10.65,23.66-11.76Z"/><polygon class="j" points="181.27 107.97 167.1 102.56 178.14 92.77 181.27 107.97"/><polygon class="k" points="88.83 102.59 74.63 108.05 77.9 92.77 88.83 102.59"/><path class="g" d="M38.83,157.94c-3.37,5.67-5.9,11.97-8.65,18.06-1.55-.83-3.7-4.22-3.01-5.59l8.37-16.84c1.4,1.45,2.47,2.93,3.29,4.37Z"/><path class="k" d="M104.85,112.2c-2.5,6.59-5.44,13.09-8.61,19.4l-4.18-.92,7.95-17.49,4.84-.99Z"/><polygon class="d" points="44.65 188.87 40.6 187.56 48.03 164.81 51.36 167.48 44.65 188.87"/><path class="d" d="M211.49,189.09l-6.01-18.87c-.66-2.08-.38-3.59,2.49-5.24l7.04,21.03c.16.98-2.68,3.04-3.52,3.09Z"/><path class="g" d="M236.04,203.04c1.21-1.66-5.59-19.71-6.92-21.2l2.84-4.2c4.02,9.84,9.06,17.58,4.09,25.41Z"/><path class="b" d="M101.05,136.83l-.06,2.89c-7.16-1.01-14.34-.97-21.13-3.67-2.57-1.31-1.87-3.22.97-3.08l20.22,3.85Z"/><path class="g" d="M226.37,175.71c-2.13-6.19-4.94-12.47-8.53-17.9l2.67-4.21,8.78,17.58-2.92,4.53Z"/><path class="d" d="M211.85,130.26l.38,2.71c-6.42,3.93-10.69,11.14-15.02,16.62-4.88-7.71,14.57-19.27,14.65-19.33Z"/><path class="d" d="M43.03,132.76l1.07-2.89c4.16,2.89,18.61,13.23,14.82,19.15-5.05-5.64-9.47-12.43-15.88-16.26Z"/><path class="b" d="M235.76,110.02l-4.22-.78-5.6-11.05c-1.81-.15-4.06-.53-5.11-.16l-1.08-2.79c2.94-.92,6.16-1.04,8.64-.95l7.37,15.73Z"/><path class="j" d="M40.4,151.3c-.03-3.13,1.26-9.3,4.97-8.62,2.41.95,4.55,3.15,5.56,5.03l-4.35,9.35-6.19-5.75Z"/><path class="b" d="M35.08,94.94l-1.19,2.89c-1.25-.35-3.98.76-4.48,1.67l-6.24,11.32-3.23-.63,7.77-15.62c1.86-1.05,5.41.1,7.36.37Z"/><path class="f" d="M145.28,180.97l.85,3.07c-3.41-1.16-7.07,1.46-9.34,3.89-.59-3.62-1.39-10.52-1.75-14.58l10.24,7.63Z"/><path class="k" d="M193.08,101.85c-2.06-6.73-3.84-13.81-7.1-19.86l1.65-4.08c1.72,2.85,10.42,21.43,7.73,22.79l-2.28,1.15Z"/><path class="l" d="M99.69,108.42c-8.04,2.01-15.71,4.49-25.4,7.67-2.56-2.55,24.68-13.34,25.4-7.67Z"/><path class="d" d="M181.79,116.03c-9.56-3-17.52-5.64-25.71-7.56l4.26-2.29c6.99,3.01,16.26,2.98,21.45,9.85Z"/><path class="l" d="M80.83,132.98l-.97,3.08c-3.81-1.51-9.1-.53-12.82-4.43-1.36-1.43.46-5.83,2.11-5.13,2.92,3.36,7.45,5.68,11.67,6.48Z"/><path class="g" d="M119.42,189.76l.12-1.64c.89-5.38,1.46-9.57,3.63-14.54,1.06,6.62.9,12.66.39,18.9-1.65.75-4.26-1.21-4.14-2.73Z"/><path class="k" d="M148.81,53.04l2.39,5.67c1.59,3.79,2.01,7.67,1.15,11.3-2.68-7.05-5.56-13.5-8.8-20.69l5.26,3.72Z"/><path class="d" d="M58.12,109.15l1.8-2.16c3.63,3.7,10.15,6.54,9.27,13.31-4.28-3.87-7.87-7.61-11.08-11.15Z"/><path class="d" d="M197.9,109.16c-3.72,3.46-6.42,7.99-11.42,10.81.12-6.67,5.99-9.37,9.62-12.97l1.8,2.16Z"/><path class="j" d="M147.97,75.99c.65,3.46,4.51,7.8-.15,11.57l-4.55-8.46,4.7-3.12Z"/><path class="l" d="M138.05,40.48c-5.53-.19-10.09-.38-16.19-1.52,4.98-3.19,11.56-3.12,16.19,1.52Z"/><path class="k" d="M45.38,142.68l-4.97,8.62c-3.06-4.4,2.7-13.94,3.85-11.26l1.13,2.64Z"/><path class="c" d="M113,157.16l-4,.84c-.09-.71-.6-2.36-.43-1.91l4.43,1.07Z"/><path class="c" d="M147,158l-2-.89,2.44-1.21c2.32-1.15-.33,1.31-.44,2.1Z"/><path class="i" d="M126.03,213.24c7.16.99,13.39-.77,19.27-3.42,4.14-1.87,9.75.54,11.89,2.77,2.7,2.81,3.41,8.3,1.56,12.03-7.95,16-16.99-.34-47.93,7.16-6.57,1.59-12.15-2.28-13.99-8.6-1.17-4.03-.34-8.33,2.6-11.28,6.47-6.51,17.7,2.84,26.59,1.34Z"/><path class="i" d="M134.22,238.73c-11.14-2.26-13.61,2.07-15.37-1.32-2.63-5.07,18.24-5.78,18.46-.84.04.98-1.99,2.39-3.1,2.16Z"/><path class="b" d="M123.05,87.99c-1.46.42-4.51-.42-4.6-1.52-.12-1.38,1.04-3.74,2.16-4.38s4.34.27,4.81,1.56c.44,1.2-1.12,3.97-2.37,4.34Z"/><path class="e" d="M154.06,222.73c-4.87,11.8-14.87-4.69-42.42,4.06-3.74,1.19-7.42.04-9.06-2.8s-1.41-9.19,2.69-9.74c14.96,5.38,30.48,5.31,45.42.05,3.9.34,4.35,6.02,3.36,8.43Z"/></svg>